# xmcd
#
# Track frame offsets: 
#        187
#        16215
#        32310
#        48880
#        63832
#        82052
#        94607
#        109870
#        123900
#        139282
#
# Disc length: 2063 seconds
#
# Revision: 4
# Processed by: cddbd v1.5PL3 Copyright (c) Steve Scherf et al.
# Submitted via: ExactAudioCopy v0.95a3
#
DISCID=76080d0a
DTITLE=Desert Rose Band - True Love
DYEAR=1991
DGENRE=Country
TTITLE0=You Can Go Home
TTITLE1=It Takes A Believer
TTITLE2=Twilight Is Gone
TTITLE3=No One Else
TTITLE4=A Matter Of Time
TTITLE5=Undying Love (With Alison Krauss)
TTITLE6=Behind These Walls
TTITLE7=True Love
TTITLE8=Glory And Power
TTITLE9=Shades Of Blue
EXTD=
EXTT0=
EXTT1=
EXTT2=
EXTT3=
EXTT4=
EXTT5=
EXTT6=
EXTT7=
EXTT8=
EXTT9=
PLAYORDER=
